<svg width="24" height="24" viewBox="0 0 24 24" fill="none" xmlns="http://www.w3.org/2000/svg">
<path d="M12.5469 1.57649C15.0195 1.18487 17.3415 2.87183 17.7331 5.34443L18.9168 12.8172C19.3084 15.2898 17.6215 17.6117 15.1489 18.0033L7.67635 19.1868C7.20598 19.2613 6.74106 19.2606 6.29385 19.1936C6.29387 19.1936 6.29383 19.1935 6.29385 19.1936C4.39013 18.9083 2.80713 17.421 2.49 15.4187L1.30647 7.94615C0.914849 5.47355 2.60181 3.15164 5.07441 2.76002L12.5469 1.57649Z" fill="#13193A"/>
<path d="M10.6515 22.4746C9.20494 22.4746 7.91691 21.7972 7.08704 20.7422C7.35935 20.7364 7.63448 20.7122 7.91103 20.6684L15.3835 19.4848C18.6744 18.9636 20.9196 15.8734 20.3984 12.5825L19.3537 5.98694C21.3071 6.49129 22.75 8.26519 22.75 10.3761V17.9418C22.75 20.4452 20.7206 22.4746 18.2172 22.4746H10.6515Z" fill="#13193A"/>
</svg>
